# xmcd
#
# Track frame offsets:
#	150
#	11897
#	23483
#	36054
#	49666
#	62293
#	74887
#	83430
#	99269
#	111479
#	125602
#	137496
#	150379
#	162553
#	179970
#	188522
#	199497
#	214412
#	223121
#	234962
#
# Disc length: 3282 seconds
#
# Revision: 1
# Processed by: cddbd v1.5.1PL2 Copyright (c) Steve Scherf et al.
# Submitted via: audiograbber 1.83.01
#
DISCID=1e0cd014
DTITLE=All-time Country Favourites - All-time Country Favourites Disc 1
DYEAR=2001
DGENRE=Country
TTITLE0=Don Gibson - Oh, Lonesome Me
TTITLE1=Patsy Cline - Crazy Dreams
TTITLE2=Kenny Rogers and The First Edition - Reuben James
TTITLE3=The Kendalls - Heartaches By The Number
TTITLE4=Bobby Bare - Four Strong Winds
TTITLE5=George Jones - Don't Be Angry
TTITLE6=Jim Reeves - Waiting For A Train (Live)
TTITLE7=Don Willams - I've Been Loved By The Best (Live)
TTITLE8=Merle Haggard - The Bottle Let Me Down
TTITLE9=Holly Dunn - Love Somone Like Me
TTITLE10=Mickey Gilley - Welcome To My World
TTITLE11=Slim Whitman - Release Me
TTITLE12=Willie Nelson - Seven Spanish Angels (Live)
TTITLE13=Deborah Allen - Baby I Lied
TTITLE14=Faron Young - Together Again
TTITLE15=Roger Miller - Husbands And Wives
TTITLE16=Ed Bruce - Mammas Don't Let Your Babies Grow Up To Be Cowboys
TTITLE17=Waylon Jennings - Love's Gonna Live Here
TTITLE18=Conway Twitty - (Lying Here With) Linda On My Mind
TTITLE19=Sandy Posey - Single Girl
EXTD=YEAR: 2001
EXTT0=
EXTT1=
EXTT2=
EXTT3=
EXTT4=
EXTT5=
EXTT6=
EXTT7=
EXTT8=
EXTT9=
EXTT10=
EXTT11=
EXTT12=
EXTT13=
EXTT14=
EXTT15=
EXTT16=
EXTT17=
EXTT18=
EXTT19=
PLAYORDER=
